<svg width="635" height="632" viewBox="0 0 635 632" fill="none" xmlns="http://www.w3.org/2000/svg">
<path fill-rule="evenodd" clip-rule="evenodd" d="M342.5 312.862V439.662C342.5 451.737 332.672 461.524 320.551 461.524H202.035C163.617 461.524 138.387 497.597 138.387 512.9V564.276C138.387 573.935 130.523 581.766 120.828 581.766H74.7383C50.293 581.766 20 605.886 20 632C19.9883 632 0.00390625 612 0 612C25.0742 612 52.7891 581.311 52.7891 556.624V511.807C52.7891 502.148 60.6484 494.317 70.3477 494.317H120.828C121.648 494.317 122.457 494.374 123.25 494.483C148.754 494.805 173.5 451.083 173.5 432.01V312.862C173.5 300.788 183.328 291 195.449 291H320.551C347.334 291 374.777 262.307 374.777 235.624V190.807C374.777 181.148 382.637 173.317 392.336 173.317H442.816C443.637 173.317 444.445 173.374 445.238 173.483C470.742 173.805 495.488 130.083 495.488 111.01V21.8621C495.488 9.7876 505.316 0 517.438 0H612.539C624.66 0 634.488 9.7876 634.488 21.8621V118.662C634.488 130.737 624.66 140.524 612.539 140.524H524.023C485.605 140.524 460.375 176.597 460.375 191.9V243.276C460.375 252.935 452.512 260.766 442.816 260.766H396.727C369.234 260.766 342.5 285.566 342.5 312.862Z" fill="url(#paint0_linear)"/>
<defs>
<linearGradient id="paint0_linear" x1="618.977" y1="10.5" x2="-351.83" y2="942.128" gradientUnits="userSpaceOnUse">
<stop offset="0.526042" stop-color="#44EB99"/>
<stop offset="0.883235" stop-color="#861BE3"/>
</linearGradient>
</defs>
</svg>
