<svg width="635" height="632" viewBox="0 0 635 632" fill="none" xmlns="http://www.w3.org/2000/svg">
<path fill-rule="evenodd" clip-rule="evenodd" d="M291.988 319.138L291.988 192.338C291.988 180.263 301.816 170.476 313.938 170.476L432.453 170.476C470.871 170.476 496.102 134.403 496.102 119.1L496.102 67.7241C496.102 58.0654 503.965 50.2344 513.66 50.2344L559.75 50.2344C584.195 50.2344 614 26.114 614 -1.79115e-06C614.012 -1.79012e-06 634.484 20 634.488 20C609.414 20 581.699 50.6894 581.699 75.376L581.699 120.193C581.699 129.852 573.84 137.683 564.141 137.683L513.66 137.683C512.84 137.683 512.031 137.626 511.238 137.517C485.734 137.195 460.988 180.917 460.988 199.99L460.988 319.138C460.988 331.212 451.16 341 439.039 341L313.938 341C313.441 341 312.945 340.988 312.457 340.956C312.484 340.985 312.5 341 312.5 341C287.426 341 259.711 371.689 259.711 396.376L259.711 441.193C259.711 450.852 251.852 458.683 242.152 458.683L191.672 458.683C190.852 458.683 190.043 458.626 189.25 458.517C163.746 458.195 139 501.917 139 520.99L139 610.138C139 622.212 129.172 632 117.051 632L21.9492 632C9.82812 632 8.55659e-07 622.212 1.91124e-06 610.138L1.03738e-05 513.338C1.14294e-05 501.263 9.82814 491.476 21.9492 491.476L110.465 491.476C148.883 491.476 174.113 455.403 174.113 440.1L174.113 388.724C174.113 379.065 181.977 371.234 191.672 371.234L237.762 371.234C265.254 371.234 291.988 346.434 291.988 319.138Z" fill="url(#paint0_linear)"/>
<defs>
<linearGradient id="paint0_linear" x1="15.5117" y1="621.5" x2="986.318" y2="-310.128" gradientUnits="userSpaceOnUse">
<stop stop-color="#8432dc"/>
<stop offset="0.359375" stop-color="#7061CA"/>
<stop offset="0.684885" stop-color="#8432dc"/>
</linearGradient>
</defs>
</svg>
