<svg width="313" height="314" viewBox="0 0 313 314" fill="none" xmlns="http://www.w3.org/2000/svg">
<path fill-rule="evenodd" clip-rule="evenodd" d="M226.092 10.7734C226.092 5.25059 230.569 0.773438 236.092 0.773438H302.258C307.781 0.773438 312.258 5.25059 312.258 10.7734V77.9609C312.258 83.4838 307.781 87.9609 302.258 87.9609H238.401C238.402 87.961 238.402 87.961 238.402 87.961C220.497 87.961 208.188 105.846 208.188 117.582C208.188 117.582 208.188 117.582 208.188 117.582V141.439C208.188 145.858 204.606 149.439 200.188 149.439L173.498 149.439C158.427 149.439 147.811 167.795 147.76 177.87V201.8C147.76 206.218 144.178 209.8 139.76 209.8H112.117C111.761 209.8 111.411 209.777 111.067 209.732C98.3381 210.426 86.2128 232.097 86.2128 241.657L86.2128 303.754C86.2128 309.277 81.7356 313.754 76.2128 313.754H10.0469C4.52404 313.754 0.046875 309.277 0.046875 303.754V236.566C0.046875 231.044 4.52403 226.566 10.0469 226.566H71.7807C91.3026 226.494 104.117 208.108 104.117 200.299L104.117 200.299V173.088C104.117 168.67 107.699 165.088 112.117 165.088L136.569 165.088L136.597 165.088C152.807 165.07 163.985 148.877 164.545 138.264V112.728C164.545 108.31 168.127 104.728 172.545 104.728H198.164C214.893 104.69 226.052 84.6704 226.092 75.1574V10.7734Z" fill="url(#paint0_linear_1_51991)"/>
<defs>
<linearGradient id="paint0_linear_1_51991" x1="232.758" y1="28.789" x2="-5.74145" y2="282.789" gradientUnits="userSpaceOnUse">
<stop stop-color="#44EB99"/>
<stop offset="1" stop-color="#861BE3"/>
</linearGradient>
</defs>
</svg>
